<mxfile host="app.diagrams.net" modified="2020-12-26T07:39:52.037Z" agent="5.0 (Macintosh; Intel Mac OS X 10_15_6) AppleWebKit/605.1.15 (KHTML, like Gecko) Version/14.0.1 Safari/605.1.15" etag="VBtzGqn4xwUigsOxeWGS" version="14.1.2" type="github">
  <diagram id="ZevI4NTnGdOVdkKNrIL9" name="Страница 1">
    <mxGraphModel dx="946" dy="645" grid="1" gridSize="10" guides="1" tooltips="1" connect="1" arrows="1" fold="1" page="1" pageScale="1" pageWidth="827" pageHeight="1169" math="0" shadow="0">
      <root>
        <mxCell id="0" />
        <mxCell id="1" parent="0" />
        <mxCell id="Dkm7xZ-081hUlvFUTxEm-4" value="" style="group" parent="1" vertex="1" connectable="0">
          <mxGeometry x="220" y="130" width="320" height="160" as="geometry" />
        </mxCell>
        <mxCell id="Dkm7xZ-081hUlvFUTxEm-1" value="" style="verticalAlign=top;align=left;spacingTop=8;spacingLeft=2;spacingRight=12;shape=cube;size=10;direction=south;fontStyle=4;html=1;" parent="Dkm7xZ-081hUlvFUTxEm-4" vertex="1">
          <mxGeometry width="320" height="160" as="geometry" />
        </mxCell>
        <mxCell id="Dkm7xZ-081hUlvFUTxEm-2" value="Автоматизированная система&#xa;call-центра&#xa;" style="text;align=center;fontStyle=1;verticalAlign=middle;spacingLeft=3;spacingRight=3;strokeColor=none;rotatable=0;points=[[0,0.5],[1,0.5]];portConstraint=eastwest;" parent="Dkm7xZ-081hUlvFUTxEm-4" vertex="1">
          <mxGeometry x="65" y="40" width="190" height="30" as="geometry" />
        </mxCell>
        <mxCell id="Dkm7xZ-081hUlvFUTxEm-3" value="&amp;lt;server&amp;gt;" style="text;html=1;align=center;verticalAlign=middle;resizable=0;points=[];autosize=1;" parent="Dkm7xZ-081hUlvFUTxEm-4" vertex="1">
          <mxGeometry x="130" y="10" width="60" height="20" as="geometry" />
        </mxCell>
        <mxCell id="Dkm7xZ-081hUlvFUTxEm-7" value="" style="group;fontStyle=1" parent="1" vertex="1" connectable="0">
          <mxGeometry x="40" y="350" width="320" height="160" as="geometry" />
        </mxCell>
        <mxCell id="Dkm7xZ-081hUlvFUTxEm-5" value="" style="verticalAlign=top;align=left;spacingTop=8;spacingLeft=2;spacingRight=12;shape=cube;size=10;direction=south;fontStyle=4;html=1;" parent="Dkm7xZ-081hUlvFUTxEm-7" vertex="1">
          <mxGeometry width="320" height="160" as="geometry" />
        </mxCell>
        <mxCell id="Dkm7xZ-081hUlvFUTxEm-6" value="&lt;GUI&gt;" style="text;align=center;fontStyle=0;verticalAlign=middle;spacingLeft=3;spacingRight=3;strokeColor=none;rotatable=0;points=[[0,0.5],[1,0.5]];portConstraint=eastwest;" parent="Dkm7xZ-081hUlvFUTxEm-7" vertex="1">
          <mxGeometry x="104" y="20" width="80" height="26" as="geometry" />
        </mxCell>
        <mxCell id="8bSK90Va4vjUCogRv-aJ-1" value="Абонент, который обращается за помощью говоря данные" style="shape=note;whiteSpace=wrap;html=1;backgroundOutline=1;darkOpacity=0.05;" vertex="1" parent="Dkm7xZ-081hUlvFUTxEm-7">
          <mxGeometry x="10" y="50" width="150" height="90" as="geometry" />
        </mxCell>
        <mxCell id="8bSK90Va4vjUCogRv-aJ-2" value="Сотрудник, который создает заявку на основе полученных данных" style="shape=note;whiteSpace=wrap;html=1;backgroundOutline=1;darkOpacity=0.05;" vertex="1" parent="Dkm7xZ-081hUlvFUTxEm-7">
          <mxGeometry x="180" y="40" width="120" height="110" as="geometry" />
        </mxCell>
        <mxCell id="Dkm7xZ-081hUlvFUTxEm-8" value="" style="group" parent="1" vertex="1" connectable="0">
          <mxGeometry x="430" y="340" width="390" height="210" as="geometry" />
        </mxCell>
        <mxCell id="Dkm7xZ-081hUlvFUTxEm-9" value="" style="verticalAlign=top;align=left;spacingTop=8;spacingLeft=2;spacingRight=12;shape=cube;size=10;direction=south;fontStyle=4;html=1;" parent="Dkm7xZ-081hUlvFUTxEm-8" vertex="1">
          <mxGeometry width="390" height="210" as="geometry" />
        </mxCell>
        <mxCell id="Dkm7xZ-081hUlvFUTxEm-10" value="&lt;database&gt;" style="text;align=center;fontStyle=0;verticalAlign=middle;spacingLeft=3;spacingRight=3;strokeColor=none;rotatable=0;points=[[0,0.5],[1,0.5]];portConstraint=eastwest;" parent="Dkm7xZ-081hUlvFUTxEm-8" vertex="1">
          <mxGeometry x="126.75" y="26.25" width="97.5" height="34.125" as="geometry" />
        </mxCell>
        <mxCell id="8bSK90Va4vjUCogRv-aJ-3" value="Заявка, которая в последствии становится обращением" style="shape=note;whiteSpace=wrap;html=1;backgroundOutline=1;darkOpacity=0.05;" vertex="1" parent="Dkm7xZ-081hUlvFUTxEm-8">
          <mxGeometry x="210" y="91.88000000000002" width="110" height="110" as="geometry" />
        </mxCell>
        <mxCell id="8bSK90Va4vjUCogRv-aJ-4" value="Оборудование и указанные тип оборудования, что нуждается в починки" style="shape=note;whiteSpace=wrap;html=1;backgroundOutline=1;darkOpacity=0.05;" vertex="1" parent="Dkm7xZ-081hUlvFUTxEm-8">
          <mxGeometry x="20" y="101.88" width="174.25" height="100" as="geometry" />
        </mxCell>
        <mxCell id="8bSK90Va4vjUCogRv-aJ-5" value="Обращение, которое станет основой для работы" style="shape=note;whiteSpace=wrap;html=1;backgroundOutline=1;darkOpacity=0.05;" vertex="1" parent="Dkm7xZ-081hUlvFUTxEm-8">
          <mxGeometry x="30" y="53.75999999999999" width="190" height="38.12" as="geometry" />
        </mxCell>
        <mxCell id="Dkm7xZ-081hUlvFUTxEm-35" style="edgeStyle=orthogonalEdgeStyle;rounded=0;orthogonalLoop=1;jettySize=auto;html=1;exitX=1;exitY=1;exitDx=0;exitDy=0;exitPerimeter=0;entryX=-0.019;entryY=0.463;entryDx=0;entryDy=0;entryPerimeter=0;dashed=1;endArrow=none;endFill=0;" parent="1" source="Dkm7xZ-081hUlvFUTxEm-1" target="Dkm7xZ-081hUlvFUTxEm-5" edge="1">
          <mxGeometry relative="1" as="geometry" />
        </mxCell>
        <mxCell id="Dkm7xZ-081hUlvFUTxEm-36" style="edgeStyle=orthogonalEdgeStyle;rounded=0;orthogonalLoop=1;jettySize=auto;html=1;exitX=0;exitY=0;exitDx=160;exitDy=10;exitPerimeter=0;entryX=0;entryY=0;entryDx=0;entryDy=190;entryPerimeter=0;dashed=1;endArrow=none;endFill=0;" parent="1" source="Dkm7xZ-081hUlvFUTxEm-1" target="Dkm7xZ-081hUlvFUTxEm-9" edge="1">
          <mxGeometry relative="1" as="geometry" />
        </mxCell>
      </root>
    </mxGraphModel>
  </diagram>
</mxfile>
